name rise42.5664peak47.7979fall81.9185.mot
datacolumns 19
datarows 32
range 21.64658400000000 21.69824700000000
endheader
time	ground_force1_vx	ground_force1_vy	ground_force1_vz	ground_force1_px	ground_force1_py	ground_force1_pz	ground_force2_vx	ground_force2_vy	ground_force2_vz	ground_force2_px	ground_force2_py	ground_force2_pz	ground_torque1_x	ground_torque1_y	ground_torque1_z	ground_torque2_x	ground_torque2_y	ground_torque2_z	
21.64658400000000	-7.42146200000000	40.50509000000000	-11.35129800000000	0.27470400000000	0.00000000000000	0.09757200000000	-38.86246000000000	778.98834999999997	-57.75315000000000	0.09963700000000	0.00000000000000	-0.09576000000000	0.00000000000000	-6.38195900000000	0.00000000000000	0.00000000000000	-18.00430400000000	0.00000000000000	
21.64824700000000	-8.20256200000000	47.35610000000000	-12.71880700000000	0.27919600000000	0.00000000000000	0.09876500000000	-39.09305100000000	775.51118899999994	-57.32327200000000	0.09907900000000	0.00000000000000	-0.09563500000000	0.00000000000000	-7.22005900000000	0.00000000000000	0.00000000000000	-17.87884600000000	0.00000000000000	
21.64992500000000	-8.85935000000000	54.26324200000000	-13.94584800000000	0.28328700000000	0.00000000000000	0.09986600000000	-39.32982600000000	771.92885600000000	-56.86499400000000	0.09853100000000	0.00000000000000	-0.09550500000000	0.00000000000000	-7.99084400000000	0.00000000000000	0.00000000000000	-17.75340200000000	0.00000000000000	
21.65158500000000	-9.37133800000000	61.13554800000000	-15.00268800000000	0.28703500000000	0.00000000000000	0.10088900000000	-39.57304300000000	768.24317599999995	-56.37849400000000	0.09799100000000	0.00000000000000	-0.09536900000000	0.00000000000000	-8.67594200000000	0.00000000000000	0.00000000000000	-17.62813500000000	0.00000000000000	
21.65325300000000	-9.72574500000000	67.90517500000000	-15.87010300000000	0.29048800000000	0.00000000000000	0.10184300000000	-39.82292600000000	764.45596200000000	-55.86399800000000	0.09746000000000	0.00000000000000	-0.09522700000000	0.00000000000000	-9.26286500000000	0.00000000000000	0.00000000000000	-17.50320000000000	0.00000000000000	
21.65491300000000	-9.91745000000000	74.52938899999999	-16.53945300000000	0.29368300000000	0.00000000000000	0.10273800000000	-40.07966300000000	760.56900599999994	-55.32178000000000	0.09693800000000	0.00000000000000	-0.09508000000000	0.00000000000000	-9.74518600000000	0.00000000000000	0.00000000000000	-17.37874300000000	0.00000000000000	
21.65658600000000	-9.94834300000000	80.99016200000000	-17.01186600000000	0.29665400000000	0.00000000000000	0.10358000000000	-40.34340500000000	756.58406800000000	-54.75216100000000	0.09642600000000	0.00000000000000	-0.09492700000000	0.00000000000000	-10.12218300000000	0.00000000000000	0.00000000000000	-17.25489900000000	0.00000000000000	
21.65825300000000	-9.82621000000000	87.29179200000000	-17.29677700000000	0.29942600000000	0.00000000000000	0.10437600000000	-40.61426100000000	752.50286800000003	-54.15551000000000	0.09592300000000	0.00000000000000	-0.09476800000000	0.00000000000000	-10.39807900000000	0.00000000000000	0.00000000000000	-17.13179700000000	0.00000000000000	
21.65991600000000	-9.56332500000000	93.45710200000001	-17.41002400000000	0.30202100000000	0.00000000000000	0.10513000000000	-40.89229700000000	748.32707900000003	-53.53224200000000	0.09542900000000	0.00000000000000	-0.09460300000000	0.00000000000000	-10.58099600000000	0.00000000000000	0.00000000000000	-17.00955100000000	0.00000000000000	
21.66158600000000	-9.17493200000000	99.52276600000000	-17.37175500000000	0.30445900000000	0.00000000000000	0.10584600000000	-41.17753600000000	744.05831499999999	-52.88282000000000	0.09494600000000	0.00000000000000	-0.09443200000000	0.00000000000000	-10.68177600000000	0.00000000000000	0.00000000000000	-16.88826700000000	0.00000000000000	
21.66324700000000	-8.67774100000000	105.53431500000001	-17.20434500000000	0.30675400000000	0.00000000000000	0.10652800000000	-41.46995300000000	739.69812999999999	-52.20775200000000	0.09447300000000	0.00000000000000	-0.09425500000000	0.00000000000000	-10.71277300000000	0.00000000000000	0.00000000000000	-16.76803600000000	0.00000000000000	
21.66493800000000	-8.08857500000000	111.54127400000000	-16.93048900000000	0.30892000000000	0.00000000000000	0.10718000000000	-41.76947200000000	735.24800500000003	-51.50758900000000	0.09400900000000	0.00000000000000	-0.09407200000000	0.00000000000000	-10.68673600000000	0.00000000000000	0.00000000000000	-16.64894000000000	0.00000000000000	
21.66658400000000	-7.42323900000000	117.59279700000000	-16.57159700000000	0.31096900000000	0.00000000000000	0.10780400000000	-42.07597000000000	730.70934199999999	-50.78293100000000	0.09355600000000	0.00000000000000	-0.09388300000000	0.00000000000000	-10.61584300000000	0.00000000000000	0.00000000000000	-16.53104600000000	0.00000000000000	
21.66825000000000	-6.69566200000000	123.73406600000000	-16.14656600000000	0.31290900000000	0.00000000000000	0.10840200000000	-42.38926700000000	726.08346200000005	-50.03441900000000	0.09311300000000	0.00000000000000	-0.09368700000000	0.00000000000000	-10.51094800000000	0.00000000000000	0.00000000000000	-16.41440800000000	0.00000000000000	
21.66991200000000	-5.91734200000000	130.00358800000001	-15.67095000000000	0.31475000000000	0.00000000000000	0.10897600000000	-42.70913300000000	721.37159499999996	-49.26273700000000	0.09268100000000	0.00000000000000	-0.09348700000000	0.00000000000000	-10.38105800000000	0.00000000000000	0.00000000000000	-16.29906900000000	0.00000000000000	
21.67158400000000	-5.09706400000000	136.43143599999999	-15.15653300000000	0.31649900000000	0.00000000000000	0.10952800000000	-43.03528000000000	716.57487800000001	-48.46861000000000	0.09225900000000	0.00000000000000	-0.09328000000000	0.00000000000000	-10.23304500000000	0.00000000000000	0.00000000000000	-16.18505400000000	0.00000000000000	
21.67324800000000	-4.24088700000000	143.03841399999999	-14.61125800000000	0.31816000000000	0.00000000000000	0.11006000000000	-43.36736300000000	711.69434799999999	-47.65280700000000	0.09184700000000	0.00000000000000	-0.09306700000000	0.00000000000000	-10.07156100000000	0.00000000000000	0.00000000000000	-16.07237900000000	0.00000000000000	
21.67492600000000	-3.35232600000000	149.83602400000001	-14.03945400000000	0.31974100000000	0.00000000000000	0.11057300000000	-43.70498000000000	706.73094200000003	-46.81613400000000	0.09144600000000	0.00000000000000	-0.09284800000000	0.00000000000000	-9.89914500000000	0.00000000000000	0.00000000000000	-15.96104100000000	0.00000000000000	
21.67657900000000	-2.43270900000000	156.82709500000001	-13.44229400000000	0.32124400000000	0.00000000000000	0.11106800000000	-44.04767000000000	701.68549099999996	-45.95943700000000	0.09105500000000	0.00000000000000	-0.09262300000000	0.00000000000000	-9.71646700000000	0.00000000000000	0.00000000000000	-15.85102700000000	0.00000000000000	
21.67825000000000	-1.48161800000000	164.00691300000000	-12.81840400000000	0.32267500000000	0.00000000000000	0.11154700000000	-44.39491200000000	696.55871600000000	-45.08359800000000	0.09067500000000	0.00000000000000	-0.09239300000000	0.00000000000000	-9.52266400000000	0.00000000000000	0.00000000000000	-15.74230800000000	0.00000000000000	
21.67991800000000	-0.49739800000000	171.36466600000000	-12.16454600000000	0.32403500000000	0.00000000000000	0.11200900000000	-44.74612400000000	691.35123199999998	-44.18953600000000	0.09030500000000	0.00000000000000	-0.09215700000000	0.00000000000000	-9.31573500000000	0.00000000000000	0.00000000000000	-15.63484000000000	0.00000000000000	
21.68158300000000	0.52234400000000	178.88504399999999	-11.47632200000000	0.32532900000000	0.00000000000000	0.11245600000000	-45.10066700000000	686.06354199999998	-43.27820400000000	0.08994400000000	0.00000000000000	-0.09191600000000	0.00000000000000	-9.09294800000000	0.00000000000000	0.00000000000000	-15.52856700000000	0.00000000000000	
21.68325200000000	1.58026500000000	186.54983999999999	-10.74883300000000	0.32655700000000	0.00000000000000	0.11289000000000	-45.45783900000000	680.69604100000004	-42.35058700000000	0.08959400000000	0.00000000000000	-0.09166900000000	0.00000000000000	-8.85123000000000	0.00000000000000	0.00000000000000	-15.42341900000000	0.00000000000000	
21.68492500000000	2.67888400000000	194.33944299999999	-9.97725300000000	0.32772400000000	0.00000000000000	0.11330900000000	-45.81687800000000	675.24901499999999	-41.40770300000000	0.08925300000000	0.00000000000000	-0.09141700000000	0.00000000000000	-8.58751100000000	0.00000000000000	0.00000000000000	-15.31931100000000	0.00000000000000	
21.68657900000000	3.82025400000000	202.23413099999999	-9.15729900000000	0.32882900000000	0.00000000000000	0.11371600000000	-46.17696600000000	669.72264299999995	-40.45059600000000	0.08892200000000	0.00000000000000	-0.09115900000000	0.00000000000000	-8.29900700000000	0.00000000000000	0.00000000000000	-15.21614700000000	0.00000000000000	
21.68824600000000	5.00572400000000	210.21510300000000	-8.28557400000000	0.32987400000000	0.00000000000000	0.11411000000000	-46.53722400000000	664.11700199999996	-39.48034200000000	0.08860000000000	0.00000000000000	-0.09089700000000	0.00000000000000	-7.98343300000000	0.00000000000000	0.00000000000000	-15.11381600000000	0.00000000000000	
21.68991900000000	6.23580200000000	218.26523900000001	-7.35979300000000	0.33086100000000	0.00000000000000	0.11449200000000	-46.89671700000000	658.43207299999995	-38.49803600000000	0.08828600000000	0.00000000000000	-0.09063000000000	0.00000000000000	-7.63914000000000	0.00000000000000	0.00000000000000	-15.01219800000000	0.00000000000000	
21.69158600000000	7.51008500000000	226.36956799999999	-6.37887800000000	0.33179000000000	0.00000000000000	0.11486300000000	-47.25445300000000	652.66774299999997	-37.50480200000000	0.08798100000000	0.00000000000000	-0.09035800000000	0.00000000000000	-7.26518800000000	0.00000000000000	0.00000000000000	-14.91115800000000	0.00000000000000	
21.69324600000000	8.82727400000000	234.51548800000000	-5.34296900000000	0.33266200000000	0.00000000000000	0.11522300000000	-47.60938800000000	646.82381699999996	-36.50178200000000	0.08768400000000	0.00000000000000	-0.09008100000000	0.00000000000000	-6.86135200000000	0.00000000000000	0.00000000000000	-14.81055200000000	0.00000000000000	
21.69492800000000	10.18524300000000	242.69275600000000	-4.25333700000000	0.33347800000000	0.00000000000000	0.11557100000000	-47.96042500000000	640.90002400000003	-35.49013400000000	0.08739500000000	0.00000000000000	-0.08980000000000	0.00000000000000	-6.42808200000000	0.00000000000000	0.00000000000000	-14.71022500000000	0.00000000000000	
21.69658500000000	11.58114900000000	250.89331100000001	-3.11224800000000	0.33423800000000	0.00000000000000	0.11591000000000	-48.30641800000000	634.89602700000000	-34.47103500000000	0.08711300000000	0.00000000000000	-0.08951500000000	0.00000000000000	-5.96642300000000	0.00000000000000	0.00000000000000	-14.61001200000000	0.00000000000000	
21.69824700000000	13.01156600000000	259.11096300000003	-1.92278100000000	0.33494200000000	0.00000000000000	0.11623800000000	-48.64617300000000	628.81143699999996	-33.44567500000000	0.08683700000000	0.00000000000000	-0.08922600000000	0.00000000000000	-5.47791200000000	0.00000000000000	0.00000000000000	-14.50974000000000	0.00000000000000	
